PathFileType	4	(X/Y/Z)	62_2_104_p1_0-587_filt_butterworth.trc
DataRate	CameraRate	NumFrames	NumMarkers	Units	OrigDataRate	OrigDataStartFrame	OrigNumFrames
60.0	60.0	6	27	m	60.0	146	587
Frame#	Time	RHip			RKnee			RAnkle			RBigToe			RSmallToe			RHeel			LHip			LKnee			LAnkle			LBigToe			LSmallToe			LHeel			Neck			Head			Nose			RShoulder			RElbow			RWrist			RThumb			RIndex			RPinky			LShoulder			LElbow			LWrist			LThumb			LIndex			LPinky			
		X1	Y1	Z1	X2	Y2	Z2	X3	Y3	Z3	X4	Y4	Z4	X5	Y5	Z5	X6	Y6	Z6	X7	Y7	Z7	X8	Y8	Z8	X9	Y9	Z9	X10	Y10	Z10	X11	Y11	Z11	X12	Y12	Z12	X13	Y13	Z13	X14	Y14	Z14	X15	Y15	Z15	X16	Y16	Z16	X17	Y17	Z17	X18	Y18	Z18	X19	Y19	Z19	X20	Y20	Z20	X21	Y21	Z21	X22	Y22	Z22	X23	Y23	Z23	X24	Y24	Z24	X25	Y25	Z25	X26	Y26	Z26	X27	Y27	Z27	
146	2.433333333333333	0.2872766214158713	0.4605461126470301	0.2685743361977154	0.2926191794740149	0.7316472549585863	0.509875295608618	0.32440606912231595	1.0746116181267984	0.7935060172169537	0.276213291397168	0.9289722958323915	0.9478322147383265	0.3505656804504341	0.9586785998590082	0.925800295378966	0.31804620637188574	1.146922943078302	0.8323418439105488	0.09069325224386038	0.5181287685081639	0.22039600209826554	0.1342103936038584	0.7888690766590396	0.48742480927088894	0.15645752727585904	1.0422866840932827	0.7816288453937243	0.1083078453757186	0.8896054506980707	0.9286024930623652	0.07300658334667363	0.9781810664019011	0.8895078273237362	0.2001545134441257	1.1375263994476257	0.8040988477050487	0.2094745917579735	0.11306383252761289	-0.20430733612206217	0.21517456395571327	-0.05935290911305757	-0.3759761340777942	0.1803956696305392	-0.046647909497104394	-0.2369545471376977	0.35848327868665913	0.15535726702258604	-0.10263217863708868	0.4058895004610945	0.29932593246960404	0.14133874289678316	0.3790715017439228	0.4246482879738652	0.36122888088734695	0.32240832763224764	0.4778381772314934	0.4672821761275974	0.33429584872658097	0.4804701865686577	0.48091006823444654	0.3696317337613473	0.5454046895238585	0.44495462105569233	0.05247994795527582	0.19668934057242066	-0.1570987421675124	-0.014034663232482484	0.4067305347362473	0.045545673646850665	-0.026438321504667635	0.5212902972110027	0.2861800205145534	0.020177190772980372	0.5600852480024926	0.3761324303413634	-0.006963950229867982	0.5572290726743082	0.3975247011112334	-0.03540301546784569	0.5933837625769898	0.3676970067254219
147	2.45	0.28678308083145626	0.460001590641101	0.2682079012057549	0.29262255265657194	0.7312741878687837	0.5092601669788845	0.3254424348612391	1.077368304005743	0.7931143819304214	0.27594117067868607	0.9285486783716352	0.9483986563524925	0.35053557805216007	0.9628282453097646	0.9262210795188718	0.3186061835440575	1.147148977630445	0.8315883957199772	0.0901748250011819	0.5180038604968433	0.22093773165343822	0.1343636921871695	0.7887227104370845	0.4867660741789714	0.15644748216011717	1.042164005460519	0.7816950314786348	0.10844505881884652	0.8878530343633473	0.9287263246011096	0.07316237416020133	0.978908649765664	0.8904898002897191	0.20020942504993502	1.1418240839048168	0.8030436431659969	0.20948251447057165	0.1143595372334281	-0.20320981388078832	0.21373404838618842	-0.06014439296624824	-0.37550078458270725	0.18051354618686588	-0.045114047808561264	-0.23454683086358302	0.35994550658381064	0.15573764089744807	-0.10226982579832966	0.4060069394675786	0.2973135908586393	0.1457682854279293	0.3782707796021968	0.42349006417074486	0.3640237266820864	0.32273161111597626	0.47955348126308434	0.46946336223708496	0.33241083037064	0.47979805148882243	0.48205367803902144	0.3693086399984223	0.5462360146482588	0.4458590022503411	0.052996442502396324	0.19751896811344563	-0.15605557397057826	-0.013997724595913025	0.40734856192127344	0.04623661296323471	-0.027783335381654145	0.519701828019201	0.28870738567714865	0.020006037590764057	0.5611487659967797	0.37608748901641265	-0.007217201117222746	0.5637925668347312	0.3966445577393033	-0.0357814143979452	0.5944754619065662	0.36961871921855594
148	2.466666666666667	0.28668429084996117	0.4587712818932307	0.2664167387536499	0.2928083913389507	0.7309194522957548	0.5079758649254357	0.32539572822240015	1.0812253535752383	0.7915609118771477	0.27601432351932664	0.9287725943496667	0.9483443713743628	0.35056250339183487	0.9689191626995031	0.9253041478437936	0.3180573945422465	1.1441916315216496	0.8300650237572862	0.09006777047374022	0.5177800432665675	0.221145745514929	0.13452824499323926	0.7880350965736884	0.48526596591160376	0.15644524753306477	1.0418889931495663	0.7817136156718207	0.10860257425833822	0.8877183391763888	0.9287177160548306	0.07348819762343431	0.9800232827853035	0.8909015643731947	0.20004730928142514	1.1425149887474944	0.8008608548347453	0.20950291170717578	0.11538934283219676	-0.20250113752943041	0.21261590066286953	-0.059945292291006945	-0.37567096909506903	0.18050807069369348	-0.04398143775423786	-0.2335021033855637	0.36103081174853713	0.15576528924352323	-0.10222689378382975	0.40577649430987983	0.2967074776190348	0.14913261412750867	0.3769569551463573	0.42549775654077493	0.36668119166649177	0.32303710587629847	0.4809915845933368	0.4709508352001303	0.3301994945175738	0.4820689882413303	0.48275214133756594	0.3691805733796525	0.5461336176891264	0.44759422647113273	0.05311898930799312	0.19874022778531034	-0.15422551584238092	-0.013713891542364423	0.40847689449464347	0.04697767337468106	-0.029107114600837068	0.5200298844495408	0.28954861604609233	0.0189864920347379	0.5619426406942247	0.37479773203126215	-0.008270329267253466	0.570081080332346	0.3949968602228651	-0.035489198662611014	0.5958452064676464	0.370777973240532
149	2.4833333333333334	0.28668126135119043	0.4573401771334833	0.26416432203569984	0.2929887974333765	0.7305852272544765	0.5066189507228257	0.32488816976045687	1.0856269040318303	0.7900401029492917	0.2765677961054486	0.9298375607975122	0.9480248088643007	0.35118100562610355	0.9741613872032329	0.9231437854142643	0.31765589288658846	1.1417596501844949	0.8284514884844083	0.09011718646687672	0.5176682858503812	0.2211094991397927	0.13464097082306942	0.7872236221494449	0.48374220932871037	0.15644367767758285	1.0414706558820315	0.7817679580780718	0.10873684076454254	0.888358154158917	0.9288904509169275	0.07388824733333851	0.9812142381595689	0.8909227220789513	0.19968523383892248	1.1430197629086212	0.798255153245937	0.20956854118512666	0.11585303370055594	-0.20183723422853553	0.2111901148390476	-0.06096845514342115	-0.3748637912879151	0.18042656117575143	-0.043476082666142925	-0.23343656471273852	0.36143680232196534	0.15558500212706944	-0.10230221524453695	0.4055527529953788	0.29703648014838663	0.15049037745243649	0.3757661735855933	0.4303283298922602	0.3679539643986791	0.32325644069469506	0.48198939615340575	0.47173041997818677	0.32845034947526164	0.48699984941947205	0.48289781601764514	0.36921810178826	0.5462728194208003	0.4491917751110768	0.053112960054743835	0.19994254032392483	-0.15238035489340154	-0.01339659253757833	0.4093640366986234	0.047581574549306595	-0.03024425797862742	0.5227077838916553	0.28834384241871847	0.016816455186312123	0.5622205655534201	0.372980461203128	-0.010527561121474037	0.5738579334461384	0.3929126011365729	-0.03538070314580243	0.5978323655178636	0.37037933391850436
150	2.5	0.2866566148414844	0.4564358762471148	0.26279561050325606	0.2931224643786322	0.7311416538640885	0.5066247123039617	0.32410792557446544	1.0886641715311285	0.7895539575764711	0.2772434519642946	0.9310304144824193	0.9478126286278655	0.35230995107961316	0.9769296833362495	0.9211853856827363	0.3171605933318973	1.1404491299854909	0.8272902384365093	0.0901671920578484	0.5176824369640696	0.22100299636394394	0.1345920490641517	0.7868791465523393	0.4830595085904858	0.15639934009181783	1.0414885949333934	0.7817932530533109	0.10893855467577687	0.8894054279698052	0.929527971896142	0.07418088192832341	0.9820396229740539	0.8908351836683684	0.19930798377064002	1.1443198765026055	0.7962765360650601	0.20973742824521696	0.11521518455311125	-0.2003947590712343	0.20912593328272605	-0.06417208275568692	-0.3722746348743784	0.18036994868751666	-0.04352728705648975	-0.2334733304504061	0.3614195660943144	0.1553926884180212	-0.10229755589067782	0.4054684717611502	0.29768441067796925	0.15017538971454747	0.3751529171440054	0.4358183581151952	0.367656086221264	0.3233427040505107	0.48248368674560305	0.47196345096884806	0.32759266264317377	0.4916598370556391	0.48291549781053783	0.36942570267577046	0.5469685318095066	0.44973140619148205	0.05312010519713281	0.20067958659736876	-0.1513290739991834	-0.013196923714347077	0.4097334684206678	0.04791830446809029	-0.031321973096569686	0.5254351956455472	0.28585307346473854	0.014278582359785299	0.5623363767533605	0.3716220482879043	-0.013571501923690572	0.5748746706755942	0.3905902614559408	-0.035919277004971106	0.6010646121076093	0.36839440552426433
151	2.5166666666666666	0.286611889333255	0.45657963294703596	0.26292601927745496	0.29305880344671154	0.7328672237098426	0.5089563104759841	0.32326300186417123	1.089093733669268	0.7901135857964124	0.27689392390760187	0.9302667826229757	0.9479195975248067	0.3528946731179372	0.9774442201054948	0.9208305980215012	0.3169348644216625	1.1407831182252026	0.82681409969726	0.09017271684968936	0.5177594810205316	0.22092785473341292	0.13410360024023696	0.7869443780621407	0.48319235287815115	0.1561952240383508	1.0432927349674255	0.7815441091711013	0.10920291405590041	0.8905241811562413	0.9305600052474394	0.0742921900435417	0.9823687819067881	0.8907942599935147	0.1990497774980433	1.1450589800642526	0.7953802181567622	0.21004818941454753	0.11285472273191133	-0.19775542020255873	0.20675918482910327	-0.0675643053133399	-0.369160673900357	0.18046994284656612	-0.044404481181778366	-0.2326488205789205	0.36134567534838147	0.15548178639682517	-0.10190757491319578	0.40550857763482506	0.2984230924105548	0.14925562816575008	0.37488464436806124	0.44104655250027736	0.36621513097535385	0.3233257882192603	0.48261548212619193	0.47193245768624165	0.32745386399430826	0.4940067454873504	0.4830584835933242	0.36975673594356756	0.5479724283141426	0.449361329999958	0.05319666276227848	0.2007899865263748	-0.1513139306399176	-0.013180953767937103	0.40968796689271436	0.04808938946232358	-0.032234644809886887	0.5264435134640011	0.2834964784409308	0.01251200996721048	0.5625723525942338	0.3710791617676614	-0.01657228186954272	0.5748313320915178	0.3881362665051398	-0.03696603512633265	0.6048385341119644	0.3657717318708869
